<svg xmlns="http://www.w3.org/2000/svg" viewBox="0 0 94.34 121.38"><defs><style>.cls-1{fill:#c6c6c6;}.cls-2{fill:#f6f6f6;}.cls-3{fill:#f5a784;}.cls-4{fill:#3b2645;}.cls-5{fill:#e0855c;}.cls-6{fill:#fff;}.cls-7{fill:#ab8da8;}.cls-8{fill:#e8cee5;}.cls-9{fill:#826b80;}.cls-10{fill:#291b30;}</style></defs><title>Asset 3</title><g id="Layer_2" data-name="Layer 2"><g id="Layer_1-2" data-name="Layer 1"><path class="cls-1" d="M93.6,121.07c-1.06.12-2.13.2-3.22.25-.3,0-87.89.06-87.89.06l-.19,0c-.47,0-.93-.07-1.4-.13a.93.93,0,0,1,0-1.86c.46-.05.93-.09,1.4-.12h.2l87.88,0c1.08,0,2.15.14,3.22.26A.77.77,0,0,1,93.6,121.07Z"/><path class="cls-2" d="M15,25.4a28.75,28.75,0,0,0-6.59,8.73C6.55,37.65,5,41.6,5.65,45.52c.82,5,5,8.9,6.59,13.76C14.8,67.19,10,75.54,9.91,83.85A21.94,21.94,0,0,0,13,95.21c1.31,2.18,3.17,4.25,5.64,4.83,3.35.8,6.64-1.27,10-2A12.87,12.87,0,0,1,40,101.43c1.56,1.52,2.71,3.43,4.28,4.95,5.31,5.08,14.5,4.19,20.12-.55s8.13-12.3,8.75-19.62a25.79,25.79,0,0,0-.21-7c-.45-2.35-1.38-4.58-1.86-6.92C69.4,63.85,73.53,55.5,76.43,47.4c3.2-8.93,5-18.82,2.2-27.9s-11-17-20.49-16.88a29.19,29.19,0,0,1-5.61,0A28.42,28.42,0,0,1,48,1,13.85,13.85,0,0,0,38.09.89c-5.33,2.17-6,8.43-8.21,13C27,19.71,19.76,21.41,15,25.4Z"/><path class="cls-3" d="M39.2,31s-3.07,3.56-14.45,8.14c1.52,1.15,8.89,8.11,9.41,8.74,1.19,1.43.32,2.6-.06,4.15A10.56,10.56,0,0,1,33,55.27a.63.63,0,0,1-.24.27c-.29.15-.61-.13-.77-.41a8,8,0,0,1-.57-3.28c-.27-2.71-2.88-3-4.88-4.23-5.85-3.57-11-6.49-9.32-10.26C19.18,33,30.3,24.14,33.4,23.77S42,29.18,39.2,31Z"/><path class="cls-4" d="M37.75,13.9a1.93,1.93,0,0,1-.39-1.31,5.47,5.47,0,0,1,.49-3.45A2.77,2.77,0,0,1,41,8.08a3.86,3.86,0,0,1,2.7-2.17,4.18,4.18,0,0,1,3.39.83,11.31,11.31,0,0,0,1.42,1.17,1.4,1.4,0,0,0,1.7-.11,2,2,0,0,1,.13,1.41c-.21.52-.77.78-1.14,1.18a3.56,3.56,0,0,0-.55,2.25,3.55,3.55,0,0,1-.35,1.16,11.52,11.52,0,0,1-.55,1.37c-.08.13-.34.53-.43.17q-.77-.06-1.53-.15c-1.74-.17-3.47-.36-5.2-.6-.72-.1-1.44-.2-2.14-.37A1.56,1.56,0,0,1,37.75,13.9Z"/><path class="cls-5" d="M47.6,13.6a1.07,1.07,0,0,1,1.73.05c.83,1.07-.7,3-1.83,3.06A23.52,23.52,0,0,1,47.6,13.6Z"/><path class="cls-3" d="M31.1,25.15A57.49,57.49,0,0,1,34,34.94c0,.32.1.62.14.92.27,2,1,11.89,1.08,13.44a1.87,1.87,0,0,0,0,.21c7.76,2.39,16,.48,16,.48l.06-.43c.24-1.92,1.25-9.87,1.92-16.74.34-3.5.6-6.73.62-8.74,0-.74-1.7-.72-2.88-.92a38.34,38.34,0,0,0-4.25-.43h-.44l-.07-1.15L46,20.8l-.13-2.07-.4.05a6.66,6.66,0,0,1-.76.06,6.87,6.87,0,0,1-.93-.05l-.43-.05-.58-.12c-.32-.08-.62-.18-.91-.28a1.39,1.39,0,0,1-.26-.1l-.07,0-.2-.09a6.84,6.84,0,0,1-1.06-.57,5.41,5.41,0,0,1-.47-.32l-.08-.06a.94.94,0,0,1-.18-.14L39.47,17l0,.27c.06.66.13,1.5.14,2.34,0,.57,0,1.14,0,1.64,0,.85,0,1.47,0,1.47a5.19,5.19,0,0,0-.56,0H39a18.52,18.52,0,0,0-2.43.2,16.63,16.63,0,0,0-5.3,1.75A.42.42,0,0,0,31.1,25.15Z"/><path class="cls-5" d="M39.47,17A4.92,4.92,0,0,0,46,20.8l-.13-2.07A8.08,8.08,0,0,1,39.47,17Z"/><path class="cls-3" d="M47.49,10.59c.56.62.56,2,.57,3.44,0,4.5-1.38,5.86-3.69,6s-4.67-.78-5-5c-.18-2.09-.38-4,.4-4.9C40.9,8.9,45.78,8.7,47.49,10.59Z"/><path class="cls-3" d="M39.67,14.52s-.64-1.88-1.78-.93.31,3.81,2,3.65C39.9,17.24,40.19,15.17,39.67,14.52Z"/><path class="cls-5" d="M38.38,14.45a1.58,1.58,0,0,1,.66.46,2,2,0,0,1,.48.64.08.08,0,0,1-.13.07,5.63,5.63,0,0,1-.38-.45.84.84,0,0,1-.34.25c-.1,0-.17-.09-.12-.18a.93.93,0,0,1,.27-.25,4.27,4.27,0,0,1-.52-.41A.08.08,0,0,1,38.38,14.45Z"/><path class="cls-4" d="M46.09,13.87s.38.15.34-.54-.31-.54-.31-.54-.27,0-.24.53S46.09,13.87,46.09,13.87Z"/><path class="cls-4" d="M42.15,13.75s.39.15.35-.54-.31-.54-.31-.54-.27,0-.25.53S42.15,13.75,42.15,13.75Z"/><path class="cls-5" d="M44.27,15.64c.2,0,.64.11.74-.1a5.41,5.41,0,0,0-.24-1.41,16.09,16.09,0,0,1-.39-1.87s0,0,.07,0a21.78,21.78,0,0,1,.79,3.42.09.09,0,0,1-.09.12c-.29,0-.58,0-.86,0C44.19,15.81,44.17,15.65,44.27,15.64Z"/><path class="cls-4" d="M45.73,11.77c.28-.14.8-.16,1,.14a.08.08,0,0,1-.07.12c-.14,0-.26-.08-.4-.1a1.34,1.34,0,0,0-.44.06C45.68,12,45.6,11.82,45.73,11.77Z"/><path class="cls-4" d="M41.63,12c.17-.39.86-.41,1.14-.15.07.05,0,.16-.05.18a2.36,2.36,0,0,1-.53,0,1.52,1.52,0,0,0-.43.12C41.68,12.14,41.59,12.06,41.63,12Z"/><path class="cls-6" d="M45.2,17.07a4.26,4.26,0,0,1-2.44-.5A2,2,0,0,0,44,17.76C44.81,18,45.2,17.07,45.2,17.07Z"/><path class="cls-7" d="M84.61,99.45v.06a19.38,19.38,0,0,1-.1,2c0,.35-.08.69-.13,1a20.78,20.78,0,0,1-.72,3.07c-.12.37-.25.74-.39,1.09a20.09,20.09,0,0,1-38.61-4.25c0-.24-.07-.48-.1-.72a20.92,20.92,0,0,1-.12-2.25v-.28c0-.23,0-.46,0-.69a19.49,19.49,0,0,1,.41-3.17c.06-.31.13-.61.21-.91A19.33,19.33,0,0,1,47,89.66a20,20,0,0,1,14.54-10,19.37,19.37,0,0,1,3-.23,20.09,20.09,0,0,1,20,18.8C84.6,98.63,84.61,99,84.61,99.45Z"/><path class="cls-8" d="M83.66,105.64c-.12.37-.25.74-.39,1.09-1.88-.64-3.77-1.29-5.69-1.8a90.22,90.22,0,0,0-12.39-2.36,91.22,91.22,0,0,0-11.8-.65c-2.92,0-5.82.37-8.73.56,0-.24-.07-.48-.1-.72,7-1.26,14.72-.68,21.53.16A84.36,84.36,0,0,1,83.66,105.64Z"/><path class="cls-8" d="M84.51,101.53c0,.35-.08.69-.13,1a86.58,86.58,0,0,0-17.56-4,80.65,80.65,0,0,0-22.38.66c0-.23,0-.46,0-.69a41.87,41.87,0,0,1,9-1.1,82.82,82.82,0,0,1,13.36.35A81.54,81.54,0,0,1,84.51,101.53Z"/><path class="cls-8" d="M84.61,99.45c-2.41-.79-4.82-1.61-7.28-2.26a94.18,94.18,0,0,0-12-2.37,70.29,70.29,0,0,0-11.78-.55,64.39,64.39,0,0,0-8.71,1.1c.06-.31.13-.61.21-.91C51.64,92.93,59,93.2,65.4,94a90.84,90.84,0,0,1,19.17,4.25C84.6,98.63,84.61,99,84.61,99.45Z"/><path class="cls-3" d="M43.88,53.94a47.94,47.94,0,0,1-.51,4.77c-.46,3.15-1.18,6.73-2,10.21-1.81,8-3.92,15.36-3.92,15.36a98.3,98.3,0,0,1-1.89,15.53c-.31,1.61-.62,3.16-.93,4.59-1.11,5.08-2.11,8.75-2.11,8.75l-4.87-.93c-.23-2.76-.32-5.4-.32-7.87,0-1.54,0-3,.11-4.42.44-9.62,2.15-16.05,2.17-17.26a144.62,144.62,0,0,1,.82-14.73C31.71,56.39,34,50.37,34,50.37c3.14-7.24,7.87-6.74,9.43-1.4A15.25,15.25,0,0,1,43.88,53.94Z"/><path class="cls-3" d="M59.38,105.93c0,2-.13,4.11-.3,6.29l-4.87.93s-.87-3.15-1.87-7.67c-.37-1.66-.76-3.5-1.13-5.44a98.65,98.65,0,0,1-1.93-15.76s-2.14-7.43-4-15.45c-.77-3.44-1.49-7-2-10.12-.26-1.77-.43-3.39-.5-4.77a15.2,15.2,0,0,1,.51-5c1.58-5.34,6.29-5.83,9.43,1.4,0,0,2.22,6,3.47,17.48a145.82,145.82,0,0,1,.84,14.82c0,1.2,1.69,7.53,2.15,17Q59.42,102.62,59.38,105.93Z"/><path class="cls-3" d="M49,23.08s4.25-2,16.5-1.54c0,0-3.88-7.12-4-9,0,0-1.81,1.73-3.19.23-1-1.12-.9-2.48,1-3.59s4.1-1.82,8,3.83,7.39,10.42,4.31,13.17c-3.57,3.19-17.33,6.73-20.31,5.8S45.7,23.54,49,23.08Z"/><path class="cls-7" d="M52.85,42.12c-.66-2.75-3.67-2.45-3.67-2.45a17.35,17.35,0,0,0,.08-2.91c0-.12,0-.23,0-.35-.05-.67-.12-1.36-.21-2.06,0-.12,0-.25-.05-.38a57.21,57.21,0,0,0-2.43-10.09c-.24-.74-.39-1.17-.39-1.17L46,19.66s.66-.23,2.14.86a11.79,11.79,0,0,1,1.45,1.26c1.82,1.81,4.09,8.14,5.56,13,.05.16.1.32.14.49.29,1,.54,1.85.75,2.63,0,.18.09.35.13.51.23.89.4,1.58.46,2C57,42.79,53.52,44.87,52.85,42.12Z"/><path class="cls-7" d="M36.31,44c-.54-4.58-3.21-3.75-3.21-3.75C33,39.2,33,38.18,33,37.21c0-.12,0-.23,0-.35,0-.52,0-1,0-1.52,0-.12,0-.25,0-.37.43-13.5,6.66-15.41,6.66-15.41v3.11s.25,9.93.66,16.2c0,.17,0,.34,0,.51.08,1.17.18,2.18.26,3,0,.16,0,.31,0,.45s.07.47.11.64C41.43,46.48,36.85,48.62,36.31,44Z"/><path class="cls-9" d="M48.11,20.52a5.88,5.88,0,0,0-1.56,3.36c-.24-.74-.39-1.17-.39-1.17L46,19.66S46.63,19.43,48.11,20.52Z"/><path class="cls-8" d="M40.66,42.79a3.6,3.6,0,0,1-1.9-1c-1-1-1.24-2.59-2.41-3.54A5.74,5.74,0,0,0,33,37.21c0-.12,0-.23,0-.35a6,6,0,0,1,3.79,1.32,11,11,0,0,1,1.69,2.65,3.38,3.38,0,0,0,2.17,1.51C40.62,42.5,40.64,42.65,40.66,42.79Z"/><path class="cls-8" d="M40.35,39.38a4.34,4.34,0,0,1-1.14-.69,18,18,0,0,0-3.46-2.56A9.57,9.57,0,0,0,33,35.34c0-.12,0-.25,0-.37a9.52,9.52,0,0,1,3.69,1.14A12.67,12.67,0,0,1,39,37.85a7.86,7.86,0,0,0,1.32,1C40.32,39,40.34,39.21,40.35,39.38Z"/><path class="cls-8" d="M56.14,38.4a4.58,4.58,0,0,1-1.8.22C53,38.51,51,37,49.26,36.76c0-.12,0-.23,0-.35a7.07,7.07,0,0,1,1.62.43,18.72,18.72,0,0,0,3.06,1.21A3.84,3.84,0,0,0,56,37.89C56.05,38.07,56.1,38.24,56.14,38.4Z"/><path class="cls-8" d="M55.26,35.26a5.36,5.36,0,0,1-1.44-.07A25.24,25.24,0,0,0,50,34.34a8.51,8.51,0,0,0-1,0c0-.12,0-.25-.05-.38a8.21,8.21,0,0,1,2.57.07,18.18,18.18,0,0,0,3.08.74,4,4,0,0,0,.49,0C55.17,34.93,55.22,35.09,55.26,35.26Z"/><path class="cls-4" d="M58.27,79.05a19.22,19.22,0,0,1-8.6,2.49,27.42,27.42,0,0,1-3.7.06L43.39,60.65,40.51,81C35.45,82.81,28.44,80,28.44,80c1.07-23.09,7-32.42,7-32.42,6.78,2.2,16.14.06,16.14.06C56.32,54.11,58.27,79.05,58.27,79.05Z"/><path class="cls-10" d="M43.21,50a2.19,2.19,0,0,0-.81,1c-.33.83.12,1.74-.25,2.56-.28.59-.81,1-1,1.63a2.9,2.9,0,0,0,0,1.7c0,.18.35.15.33,0a3.29,3.29,0,0,1,.42-2.23,4.74,4.74,0,0,0,.77-1.17,2.13,2.13,0,0,0,.07-.87,3.13,3.13,0,0,1,.64-2.35C43.44,50.07,43.33,49.88,43.21,50Z"/><path class="cls-10" d="M44.94,52.79a3.87,3.87,0,0,1-.15-2.64.08.08,0,0,0-.15-.07,2.43,2.43,0,0,0-.43,1.64c.06.76.62,1.45.33,2.2-.46,1.17-1,2.12-.13,3.29a.12.12,0,0,0,.2-.12,2.85,2.85,0,0,1,.17-2.85,2.19,2.19,0,0,0,.34-.64C45.19,53.19,45.11,53.22,44.94,52.79Z"/><path class="cls-10" d="M49.67,81.54a27.42,27.42,0,0,1-3.7.06L43.39,60.65A102.33,102.33,0,0,1,49.67,81.54Z"/><path class="cls-8" d="M34.66,104.4c-1.11,5.08-2.11,8.75-2.11,8.75l-4.87-.93c-.23-2.76-.32-5.4-.32-7.87A26.9,26.9,0,0,0,34.66,104.4Z"/><path class="cls-8" d="M59.38,105.93c0,2-.13,4.11-.3,6.29l-4.87.93s-.87-3.15-1.87-7.67A27.4,27.4,0,0,0,59.38,105.93Z"/><path class="cls-4" d="M33.18,118.06a.71.71,0,0,1,0,.15c-.16,2.25-2,1.91-4.72,2-2.18,0-3.33-1.21-3.2-2.52a2.29,2.29,0,0,1,.41-1.1,10.63,10.63,0,0,0,1.48-3.76c2.68-3.22,5.41.37,5.41.37A19.93,19.93,0,0,1,33.18,118.06Z"/><path class="cls-4" d="M58.31,120.16c-2.79,0-4.69.32-4.73-2.1a1.47,1.47,0,0,1,0-.21,17.54,17.54,0,0,1,.63-4.7s2.73-3.59,5.41-.37a10.73,10.73,0,0,0,1.47,3.76,2.56,2.56,0,0,1,.32.61C61.91,118.62,60.75,120.2,58.31,120.16Z"/><path class="cls-10" d="M31.21,114.52a3.65,3.65,0,0,0-3.25-.15.1.1,0,0,0,.05.18c.49,0,1-.1,1.47-.07a8.71,8.71,0,0,1,1.58.4A.2.2,0,0,0,31.21,114.52Z"/><path class="cls-10" d="M30.87,115.6a5,5,0,0,0-3.21,0,.2.2,0,0,0,.05.37,6.86,6.86,0,0,0,1.35.13,10.78,10.78,0,0,1,1.61.24C31.13,116.39,31.32,115.72,30.87,115.6Z"/><path class="cls-10" d="M58.36,114.38a3.52,3.52,0,0,0-3,.34c-.27.18-.11.7.23.56a3.65,3.65,0,0,1,2.54-.22A.35.35,0,0,0,58.36,114.38Z"/><path class="cls-10" d="M58.88,115.61a4.09,4.09,0,0,0-2.14-.11c-.44.08-1.14.19-1.25.72a.2.2,0,0,0,.14.24c.43,0,.85-.23,1.25-.28a9.37,9.37,0,0,1,1.91.08C59.19,116.28,59.19,115.74,58.88,115.61Z"/></g></g></svg>