<svg xmlns="http://www.w3.org/2000/svg" viewBox="0 0 106.15 114"><defs><style>.cls-1{fill:#c6c6c6;}.cls-2{fill:#f6f6f6;}.cls-3{fill:#f5a784;}.cls-4{fill:#ab8da8;}.cls-5{fill:#3b2645;}.cls-6{fill:#e0855c;}.cls-7{fill:#826b80;}.cls-8{fill:#e8cee5;}</style></defs><title>Asset 4</title><g id="Layer_2" data-name="Layer 2"><g id="Layer_1-2" data-name="Layer 1"><path class="cls-1" d="M100.65,113.69c-1.06.12-2.13.2-3.22.26L9.54,114l-.19,0c-.47,0-.93-.07-1.4-.13A.93.93,0,0,1,8,112c.46,0,.93-.09,1.4-.12h.2l87.88,0c1.08,0,2.15.14,3.22.26A.77.77,0,0,1,100.65,113.69Z"/><path class="cls-2" d="M.7,18.87a30.89,30.89,0,0,0-.26,11.8c1.29,8.63,5.14,16.91,5,25.64-.08,5.19-1.6,10.32-1.36,15.51C4.38,78.37,7.88,85,13.73,87.93c5.19,2.64,11.44,2.24,16.85,4.4,3.93,1.56,7.21,4.39,11,6.23a24,24,0,0,0,34-16.73c.73-3.48.67-7.09,1.37-10.57a25.07,25.07,0,0,1,4.54-10.12c5.23-6.9,13.77-10.74,18.89-17.72,4.26-5.82,5.7-13.27,5.77-20.48,0-5.78-.86-11.91-4.56-16.34C96-.08,85.92-.78,77.34.78s-17,4.84-25.72,4.16c-6.32-.49-12.27-3-18.46-4.4C23.25-1.62,11.39,2.87,4.84,10.66A19.84,19.84,0,0,0,.7,18.87Z"/><path class="cls-3" d="M48.87,25.43a.51.51,0,0,0-.2.28c-.1.33-.32,1.07-.65,2.05-1.39,4.21-4.71,12.8-8.28,11.89a12.92,12.92,0,0,1-2.91-1.24,57.21,57.21,0,0,1-7.3-4.87c-1.41-1.06-3.69-2.26-4.7-3.94-.27-.45-.4-1-.65-1.4-.69-1.23-1.94-3.33-.32-4.44a3.14,3.14,0,0,1,2.15-.4c2.53.28,4.67,1.9,6.67,3.46l6.25,4.87c.28.22.84.83,1.26.66s2.14-3.47,2.86-4.45a10.1,10.1,0,0,0,2.32-5.16,8.84,8.84,0,0,1,.08-1.27,2.56,2.56,0,0,1,2.08-1.91,3.39,3.39,0,0,1,3,1.58C51.91,22.87,49.5,24.94,48.87,25.43Z"/><path class="cls-3" d="M39.84,44.26s-5,6.75-12.45,10l-.14-.14c-1.09-1.11-8-8.15-9.55-9.53-.22-.2-.45-.39-.7-.6a46.63,46.63,0,0,0-5.21-3.69c-.9-.55-2.4-1.11-3-2.1a1.72,1.72,0,0,1-.23-1.06A3.87,3.87,0,0,1,9.79,35c.6-.63,1.19-1.27,1.77-1.91a4.89,4.89,0,0,0,.93-1.35c.64-1.45,0-2.75-.71-4.51C11.23,25.94,10,24,10,22.5c0-1,1.22-.68,2.13-1.07a2.72,2.72,0,0,1,2.78.42,5.64,5.64,0,0,1,1.3,2.06c.09.21.19.41.3.61a7.14,7.14,0,0,0,1.15,1.56l.27.26a.78.78,0,0,0,1.13,0c.22-.15.44-.36.69-.52a12.54,12.54,0,0,1,4-2.08,3.31,3.31,0,0,1,1.08-.11c1.42.17,1.78,1.25,2.5,2.24q1.46,2,2.87,4c3.95,5.66,8.34,12.36,9.4,14Z"/><path class="cls-3" d="M98.36,28.51a2.59,2.59,0,0,1-.8,2,2.56,2.56,0,0,1-1.25.33c-.68,0-1.32.13-1.94.23s-2.11.45-3.69.86c-3,.77-6.63,1.78-6.92,1.87-4.57,1.5-10.23,3.47-15.8,5.69C57.34,43.73,44.67,50,40.34,58.31,36.71,65.22,35.1,75.38,33,85c-.11,1.3-.22,2.6-.36,3.89A57.55,57.55,0,0,1,30,100.6c-.23.71-.46,1.41-.7,2.11-.3.85-.56,1.66-.78,2.45a25,25,0,0,0-.73,3.46c-.09.62-.16,1.26-.2,1.94a2.73,2.73,0,0,1-.31,1.26,2.52,2.52,0,0,1-2,.82c-3.61,0-7.18.14-10.81,0a1,1,0,0,1-.63-.18.65.65,0,0,1,.06-.89,2,2,0,0,1,.9-.42c1.65-.42,3.11-1.12,4.73-1.56a5.81,5.81,0,0,0,2.07-.85,3.75,3.75,0,0,0,1.18-1.7,8,8,0,0,0,.41-2c.07-.78.08-1.55.1-2.22.1-2.57,1.06-33.83,1.44-39.15.18-4.17.4-7.53.68-9.18a4.29,4.29,0,0,1,.14-.62c.15-1.48.35-3,.62-4.4a31.61,31.61,0,0,1,1.31-5c.64-1.76,1.58-3.55,3.26-4.38,1.94-1,3.72-.53,5.53.48a9.37,9.37,0,0,0,1.08.58c2.26.94,4-.64,5.9-1.55s3.9-1.83,5.87-2.69A149.52,149.52,0,0,1,65.62,30.8c8.17-2.47,17.13-3.52,23.58-4.23l3.21-.36.31-.1a3.6,3.6,0,0,0,1.67-1.21,5.63,5.63,0,0,0,.82-2.08c.41-1.63,1.08-3.1,1.48-4.75a1.75,1.75,0,0,1,.4-.91.65.65,0,0,1,.89-.08,1.06,1.06,0,0,1,.19.62C98.36,21.33,98.29,24.9,98.36,28.51Z"/><path class="cls-4" d="M90.68,31.94c-2.33.59-6.86,1.85-6.92,1.87-.92.29-6.57,2.23-8.16,2.8-2.51.9-5.08,1.87-7.64,2.89C58.22,43.38,46.79,49,41.59,56.29a17.22,17.22,0,0,0-1.25,2C36.71,65.22,35.1,75.38,33,85c-.11,1.3-.22,2.6-.36,3.89a49.45,49.45,0,0,1-1,5.76c-.05.25-.11.49-.17.72-.25,1-.49,2-.78,3,0,.2-.11.4-.17.6-.17.57-.35,1.14-.53,1.7-.23.71-.46,1.41-.7,2.11-.3.85-.56,1.66-.78,2.45a32.5,32.5,0,0,1-5.32-.14c.07-.78.08-1.55.1-2.22.05-1.36,1.06-33.83,1.44-39.15.18-4.17.4-7.53.68-9.18a4.29,4.29,0,0,1,.14-.62c.15-1.48.35-3,.62-4.4a31.61,31.61,0,0,1,1.31-5c.64-1.76,1.58-3.55,3.26-4.38,1.94-1,3.72-.53,5.53.48a9.37,9.37,0,0,0,1.08.58c2.26.94,4-.64,5.9-1.55s3.9-1.83,5.87-2.69A149.52,149.52,0,0,1,65.62,30.8,96.24,96.24,0,0,1,78.26,28l4.12-.6c2.45-.33,4.77-.6,6.82-.82A13.76,13.76,0,0,1,90.4,30,14.3,14.3,0,0,1,90.68,31.94Z"/><path class="cls-5" d="M38.46,43.76a12,12,0,0,1-2,3.24,23.93,23.93,0,0,1-9.1,7.23l-.14-.14c-1.09-1.11-8-8.15-9.55-9.53-.22-.2-.45-.39-.7-.6a46.63,46.63,0,0,0-5.21-3.69c-.9-.55-2.4-1.11-3-2.1a1.72,1.72,0,0,1-.23-1.06A3.87,3.87,0,0,1,9.79,35c.6-.63,1.19-1.27,1.77-1.91a4.89,4.89,0,0,0,.93-1.35c1.43.39,4.77.61,6.33-1.22,1.34-1.58,1-2.67.28-4.2.22-.15.44-.36.69-.52a12.54,12.54,0,0,1,4-2.08c.36-.09,4.3,3.12,6.45,6.16,1.45,2,2.84,4.11,4.23,6.18.65,1,1.35,1.94,2,2.94s.86,1.8,1.93,2.32a.92.92,0,0,1,.38.26.78.78,0,0,1,.08.4A5.17,5.17,0,0,1,38.46,43.76Z"/><path class="cls-3" d="M9.69,43.26a40,40,0,0,0,3.09,4,63.28,63.28,0,0,0,6.67,7.31A13.65,13.65,0,0,0,22,56.49a3.22,3.22,0,0,0,3.16-.5c2.25-1.4,4-3.71,5.49-5.83.73-1,1.43-2.07,2.1-3.14a7.61,7.61,0,0,1,.89-1.34c.59-.63,1.39-1.06,1.95-1.73a2.82,2.82,0,0,0,.54-2.62,2.67,2.67,0,0,0-2-1.76,2.47,2.47,0,0,0-2.44,1A21.77,21.77,0,0,0,30.62,43a2.28,2.28,0,0,1-.36.46A37.52,37.52,0,0,1,26.78,47c-1.06.86-2,1.83-3,2.75.13-.11-3.26-5.08-3.47-5.43C19.32,42.86,15,35,11.84,35a3.83,3.83,0,0,0-2.48.66,3.92,3.92,0,0,0-1.07,3.46A9.26,9.26,0,0,0,9.69,43.26Z"/><path class="cls-6" d="M17.7,26.08a8.8,8.8,0,0,1-2.21.72c-2.9.55-4.49-2.33-4.49-2.33l5.25-.56c.09.21.19.41.3.61A6.62,6.62,0,0,0,17.7,26.08Z"/><path class="cls-5" d="M8,20.76c-.94-.78-.75-3-.41-4A4.83,4.83,0,0,1,10,14a6.36,6.36,0,0,1,2.39-.58,7,7,0,0,1,4.13.93,4.76,4.76,0,0,1,1.94,2.35,5.6,5.6,0,0,1-.13,3.11c0,.07-.36,1.55-.59,1-.09-.22-4.18.14-4.53.15-1.11,0-2.21,0-3.32,0-.46,0-1.45.11-1.85-.19Z"/><path class="cls-6" d="M17.79,19.07a1.08,1.08,0,0,1,1.73-.18c1,.94-.29,3.07-1.4,3.28A25,25,0,0,1,17.79,19.07Z"/><path class="cls-3" d="M17.28,16.1c.64.54.83,1.87,1,3.34.62,4.45-.58,6-2.83,6.48s-4.74-.14-5.67-4.23c-.46-2.05-.93-3.94-.27-4.91C10.53,15.33,15.33,14.46,17.28,16.1Z"/><path class="cls-3" d="M10.07,21.05s-.9-1.77-1.9-.68.82,3.74,2.49,3.35C10.66,23.72,10.67,21.63,10.07,21.05Z"/><path class="cls-6" d="M14.69,20.76c.19,0,.65,0,.73-.17s-.34-.91-.4-1a11.72,11.72,0,0,1-.6-1.37s.05-.05.07,0a14.19,14.19,0,0,1,1.17,2.5c0,.05,0,.1-.08.11-.29,0-.57.1-.85.13C14.63,20.9,14.59,20.78,14.69,20.76Z"/><path class="cls-5" d="M15.69,17.51c.27-.17.78-.26,1,0a.09.09,0,0,1-.06.14c-.14,0-.27,0-.41,0a1,1,0,0,0-.42.11C15.69,17.77,15.58,17.58,15.69,17.51Z"/><path class="cls-5" d="M11.66,18.28c.11-.41.8-.52,1.11-.31a.11.11,0,0,1,0,.19,3.19,3.19,0,0,1-.53.06,1.5,1.5,0,0,0-.41.18A.11.11,0,0,1,11.66,18.28Z"/><path class="cls-5" d="M13.38,19.3a1.75,1.75,0,0,0-1.66.27.15.15,0,0,0-.06.16.11.11,0,0,0,0,.09.19.19,0,0,0,.2,0,3.53,3.53,0,0,1,.72-.22c.23,0,.47,0,.69,0S13.51,19.38,13.38,19.3Z"/><path class="cls-5" d="M17.16,18.73a1.52,1.52,0,0,0-1.62.16.15.15,0,0,0,.12.27,6,6,0,0,1,.73-.17,4.17,4.17,0,0,0,.7,0A.17.17,0,0,0,17.16,18.73Z"/><path class="cls-6" d="M9.72,21.49c-.22-.14-.56-.39-.82-.31a.06.06,0,0,0,0,.09c.1.19.34.25.53.36l0,0a.65.65,0,0,0-.16.39c0,.11.15.14.2.05a2.43,2.43,0,0,0,.18-.32,2.88,2.88,0,0,1,.44.31.06.06,0,0,0,.1,0C10.19,21.77,9.93,21.63,9.72,21.49Z"/><path class="cls-5" d="M18.44,20.63a8.76,8.76,0,0,1-.65,1.53c-.38.62-.21-1.06-1.71-1.16a2,2,0,0,0-2.36,1.67c-.11,1.37-2.51,1.26-3.42-.21,0,0,.49,2.76,2.5,3.36a4.32,4.32,0,0,0,4.9-1.21A5.68,5.68,0,0,0,18.44,20.63ZM14.51,22.9a1.71,1.71,0,0,0,.86-1,2.88,2.88,0,0,0,1.44.4A1.76,1.76,0,0,1,14.51,22.9Z"/><path class="cls-6" d="M48.87,25.43a.51.51,0,0,0-.2.28c-.1.33-.32,1.07-.65,2.05a9.34,9.34,0,0,0-1.22-3.82A3.35,3.35,0,0,0,48.87,25.43Z"/><path class="cls-7" d="M75.58,36.62c-2.48.89-5.06,1.86-7.62,2.88C58.22,43.38,46.76,49,41.59,56.29a24.3,24.3,0,0,1,8.2-11C56.11,40.38,75,36.73,75.58,36.62Z"/><path class="cls-4" d="M64.55,99.38h8.2a1.88,1.88,0,1,1,3.76,0v2.44a1.89,1.89,0,0,1-3.77,0l-8.19,0a1.89,1.89,0,0,1-3.77,0V99.39a1.88,1.88,0,1,1,3.76,0Z"/><path class="cls-4" d="M81.16,99.38h8.19a1.89,1.89,0,0,1,3.77,0v2.44a1.88,1.88,0,1,1-3.76,0l-8.19,0a1.89,1.89,0,0,1-3.77,0V99.39a1.88,1.88,0,1,1,3.76,0Z"/><path class="cls-4" d="M64.55,107.77l8.2,0a1.88,1.88,0,1,1,3.76,0v2.43a1.89,1.89,0,1,1-3.77,0l-8.19,0a1.89,1.89,0,0,1-3.77,0v-2.43a1.88,1.88,0,1,1,3.76,0Z"/><path class="cls-4" d="M81.16,107.77l8.19,0a1.89,1.89,0,0,1,3.77,0v2.43a1.88,1.88,0,1,1-3.76,0l-8.19,0a1.89,1.89,0,0,1-3.77,0v-2.43a1.88,1.88,0,1,1,3.76,0Z"/><path class="cls-1" d="M92.27,105.43H61.65a.86.86,0,0,1,0-1.72H92.27a.86.86,0,0,1,0,1.72Z"/><path class="cls-8" d="M30.72,98.3c0,.2-.11.4-.17.6-2.35,0-4.73,0-7.08-.18l0-.6C25.89,98.11,28.32,98.22,30.72,98.3Z"/><path class="cls-8" d="M31.67,94.62c-.05.25-.1.49-.17.72-2.61,0-5.3.15-7.93,0,0-.1,0-.2,0-.31s0-.32,0-.49C26.27,94.43,29,94.57,31.67,94.62Z"/><path class="cls-8" d="M80.92,34.76c-.23.08-.47.15-.7.24-.34-1-.63-2-.92-2.93a23.87,23.87,0,0,1-1-4.08l.65-.1a36.86,36.86,0,0,0,1.16,4.57C80.32,33.24,80.61,34,80.92,34.76Z"/><path class="cls-8" d="M84.42,33.61l-.66.2c-.35-.85-.66-1.7-1-2.57a35.91,35.91,0,0,1-1.19-3.75l.76-.1c.31,1,.53,2.14.87,3.12S84,32.6,84.42,33.61Z"/></g></g></svg>