<svg xmlns="http://www.w3.org/2000/svg" viewBox="0 0 102.45 109.2"><defs><style>.cls-1{fill:#f6f6f6;}.cls-2{fill:#c6c6c6;}.cls-3{fill:#3b2645;}.cls-4{fill:#f5a784;}.cls-5{fill:#e0855c;}.cls-6{fill:#ffeee6;}.cls-7{fill:#ffa277;}.cls-8{fill:#8695c2;}.cls-9{fill:#c1cae3;}</style></defs><title>Asset 1</title><g id="Layer_2" data-name="Layer 2"><g id="Layer_1-2" data-name="Layer 1"><path class="cls-1" d="M18.5,103.31a9.75,9.75,0,0,1-7.29-3.41C8.88,96.84,9.3,92.44,7.47,89.06c-1.41-2.58-4-4.32-5.6-6.77-2.72-4.14-2.24-9.76-.05-14.21s5.84-8,9.42-11.39,7.24-6.94,9.47-11.37c2.53-5,3-10.81,4.11-16.33C27,18,32.82,6.73,43.15,2.36,48.06.28,53.52,0,58.84,0c8.73.08,17.69,1.18,25.35,5.34S98.05,17.22,98.42,25.94c.39,9-5.27,17.78-3.55,26.64.71,3.68,2.64,7,4.21,10.39a32.13,32.13,0,0,1,3.37,13.44,17.34,17.34,0,0,1-5,12.61c-5,4.65-12.57,5-19.34,4.23s-13.67-2.44-20.3-.88c-5.28,1.25-9.85,4.42-14.63,7-4,2.1-8.27,3.77-12.8,3.58C26.35,102.74,22.44,103.53,18.5,103.31Z"/><path class="cls-2" d="M99.77,108.89c-1.09.12-2.18.21-3.28.26l-89.64,0H6.66l-1.43-.13a1,1,0,0,1,0-1.9L6.66,107h.2s89.31,0,89.62,0c1.1.05,2.2.14,3.29.26A.78.78,0,0,1,99.77,108.89Z"/><path class="cls-3" d="M38.21,40.51a8.27,8.27,0,0,0,.87-.11,6.63,6.63,0,0,1,2.9-.13,4.11,4.11,0,0,0,2.38.27,15.46,15.46,0,0,1,2.53.14c.91,0,1.67-.67,2.55-.89,1.79-.45,3.39.76,5.12.93a3.32,3.32,0,0,0,2.21-.67c.95-.47,2.08-.24,3-.67a4.38,4.38,0,0,0,.79-.5,1.57,1.57,0,0,0,.47-.49A1.31,1.31,0,0,0,60.65,37a6.55,6.55,0,0,1-1.13-1.1c-.66-1.06-.61-3-.94-4.26-.46-1.75-.4-3.93-1.65-5.37-1.7-1.95-5.28-2.27-7.66-1.75-2.2.49-4.42,1.53-5.49,3.62-.58,1.13-.43,2.3-.76,3.5A10.9,10.9,0,0,1,37.89,38c-.76.43-1.66.9-1.85,1.75A.33.33,0,0,0,36,40a.39.39,0,0,0,.19.19A3.36,3.36,0,0,0,38.21,40.51Z"/><path class="cls-4" d="M61.32,51.68a13.08,13.08,0,0,1-.74,1.24,5,5,0,0,0-.39.94,20.94,20.94,0,0,0-.46,2,25.34,25.34,0,0,0-.12,8.22,21.16,21.16,0,0,1-6.86,1.39c-4.14.13-7.4-.32-8.6-1.23A27.41,27.41,0,0,0,45,57.24v-.06a4.23,4.23,0,0,0-.05-.5c-.15-1.4-.35-2.77-.55-4.15l0-.17c0-.31-.11-.61-.17-.92-.13-.7-.29-1.4-.48-2.11-.42-1.55-1.05-3.27-.83-4.91A1.73,1.73,0,0,1,44.38,43a9.67,9.67,0,0,1,1.44-.25l.5,0,.32,0,.09,0,.58,0h.06c.6-.06,1-.08,1.19-.12s.13,0,.13,0l-.46-6.27A10.37,10.37,0,0,1,49.86,36c1.31,0,3,.25,3.13,1.56l.92,4.34s.05.26.05.26.06,0,.14,0l.95,0,.58.05c.4,0,.84,0,1.28.11l.48.07.87.12c.84.13,1.61.37,1.83,1.22s.3,1.55.45,2.32a9.84,9.84,0,0,0,.32,1.24,3.4,3.4,0,0,0,.12.34A5.4,5.4,0,0,1,61.32,51.68Z"/><path class="cls-4" d="M81.69,28.55v.07A.09.09,0,0,0,81.69,28.55ZM81.06,46a22.94,22.94,0,0,0,1.39-6c.14-1.06.26-2.11.42-3.1.31-1.91.63-3.83,1-5.73.36-1.55.66-3.79,1.66-5.05a4.19,4.19,0,0,1,.73-.66,11.61,11.61,0,0,0,2.23-2.36,1,1,0,0,0,.25-.58c0-.2-.18-.43-.38-.4a.62.62,0,0,0-.22.1c-1.58,1-4.25,2.11-5.25,3.75a25.58,25.58,0,0,0-1.31,3.35c-.79,1.88-1.71,3.64-2.4,5.55-.44,1.22-2.43,6.56-3,8a32,32,0,0,1-8.78,1,11.21,11.21,0,0,1-1.2-.16c-4.24-.42-6.27-1-7.48-1.16a1.94,1.94,0,0,0-1.57.3c-5.21,4-4.17,8.76-4.17,8.76S79.07,50.61,81.06,46Z"/><path class="cls-5" d="M48.23,36.16l.22,2.9a6.87,6.87,0,0,0,5.12,1.25L53,37.59C52.83,36.28,51.16,36,49.86,36A10.37,10.37,0,0,0,48.23,36.16Z"/><path class="cls-4" d="M45.05,32.87c.31-.8.91-.69,1.4-.41a7.74,7.74,0,0,1,.19-3.26c.91-2.57,6-3.61,8.58-.52a7.81,7.81,0,0,1,1,3.72c.55,4.94-1.7,7-3.32,7.08a5.47,5.47,0,0,1-5.71-3.38C46.21,36,44.53,34.19,45.05,32.87Z"/><path class="cls-5" d="M51.89,34.71c.22-.05.72,0,.81-.2A6.11,6.11,0,0,0,52.26,33c-.07-.21-.14-.4-.21-.59l.06,0,.13-.06c.27.78.48,1.59.73,2.33a.11.11,0,0,1-.1.14c-.32,0-.62.11-.94.14C51.83,34.91,51.78,34.73,51.89,34.71Z"/><path class="cls-3" d="M53.34,30.63c.29-.18.86-.27,1.11,0a.09.09,0,0,1-.07.14c-.15,0-.29-.06-.45-.06a1.13,1.13,0,0,0-.47.12A.14.14,0,0,1,53.34,30.63Z"/><path class="cls-3" d="M49.14,31.44c.15-.45.9-.55,1.25-.31a.12.12,0,0,1,0,.21,2.82,2.82,0,0,1-.59.05,1.77,1.77,0,0,0-.45.18A.13.13,0,0,1,49.14,31.44Z"/><path class="cls-5" d="M51.47,35.93a2.19,2.19,0,0,0,.9.27c.28,0,.57-.17.84-.1a.09.09,0,0,1,0,.11c-.18.31-.7.38-1,.38a1.2,1.2,0,0,1-1-.41A.17.17,0,0,1,51.47,35.93Z"/><path class="cls-3" d="M53.29,32.35a1.61,1.61,0,0,0,1.06.07c.23-.09.38-.28.6-.38,0,.31-.28.51-.53.61a1.53,1.53,0,0,1-1.22-.07C53.07,32.52,53.15,32.3,53.29,32.35Z"/><path class="cls-3" d="M48.93,32.84c.49.13,1.32.44,1.56-.27a.1.1,0,0,1,.2,0c.07.39-.41.61-.72.67a1.16,1.16,0,0,1-1.13-.3C48.79,32.9,48.86,32.82,48.93,32.84Z"/><path class="cls-3" d="M46.18,26.69A6.11,6.11,0,0,1,48,25.58a8.08,8.08,0,0,1,3.43-.19,8.73,8.73,0,0,1,3.55.8c1,.53,2.34,2.2,1.5,3.36s-3-.88-3.66-1.5a2.28,2.28,0,0,1-2,1.26,8.23,8.23,0,0,0-2.49.33A3.42,3.42,0,0,0,47,30.73a2.66,2.66,0,0,0-.37.53,2.84,2.84,0,0,0-.22,1.15.9.9,0,0,0-.73-.28,1.26,1.26,0,0,1-.77-.18,1,1,0,0,1-.28-.5,7.15,7.15,0,0,1-.06-2.12A3.39,3.39,0,0,1,46.18,26.69Z"/><path class="cls-4" d="M20.42,78.05a9.4,9.4,0,0,1-1.53,3.23c-.78,1-2.14,3.44-2.11,4.37a2.35,2.35,0,0,0,.18.41l.06.1a2.21,2.21,0,0,0,.6.64l.06,0a2.16,2.16,0,0,0,.75.34l.07,0a3,3,0,0,0,.77.09,17.49,17.49,0,0,1,1.95-3.18s-.35,1.71.07,2.06l.37.06s.59-1.79.92-2.57a6.14,6.14,0,0,0,.19-3.88S21.65,77.23,20.42,78.05Z"/><path class="cls-5" d="M18.43,87.19l.07,0a28.36,28.36,0,0,1,1.75-3.37s0,0,0,0A9.24,9.24,0,0,0,18.43,87.19Z"/><path class="cls-5" d="M17.62,86.8l.06,0a28.36,28.36,0,0,1,1.75-3.37s0,0,0,0A9.07,9.07,0,0,0,17.62,86.8Z"/><path class="cls-5" d="M17,86.06l.06.1A31.11,31.11,0,0,1,18.69,83s0,0,0,0A8.35,8.35,0,0,0,17,86.06Z"/><path class="cls-4" d="M45.11,43s5.79,1.49,1.72,5.25C41.59,53.06,33.49,60.92,31,64.42s-8.64,16.33-8.64,16.33l-2.47-1.12s4.7-13.4,7.54-18.07S40.69,41.88,45.11,43Z"/><path class="cls-4" d="M51.87,75.63C64.39,78.45,80,80.09,80,80.09c-.37,1.67-.06,4.89.51,8.43,1.16,7.1,3.38,15.54,3.38,15.54a4.5,4.5,0,0,0,4-.72c-.33-7.26,1.5-27.08-2-29.37-5.8-3.83-26.79-10.09-30.32-10.36-2.43-.17-4.81.25-5.86,2.19a5.87,5.87,0,0,0-.54,3.35l.06.53C50,74.44,46.11,74.34,51.87,75.63Z"/><path class="cls-4" d="M56.7,65.12c0,.19-4.35,21.45-16.45,27.56A95.35,95.35,0,0,1,15,100.87l-1.07.19a6.48,6.48,0,0,0,.53,3A3.11,3.11,0,0,0,16,105.78a1.23,1.23,0,0,1,.4.19.71.71,0,0,1-.15,1,2,2,0,0,1-1.17.27c-1.39,0-3,.15-3.61-1.22a23.94,23.94,0,0,1-1-2.66c-.46-1.42-1.87-5.25.05-5.76C16.88,96,33.1,87.43,35.81,85.89c2.46-1.4,4.95-16,9-20.5S56,62,56.7,65.12Z"/><path class="cls-4" d="M83.54,102.72c0,.44.09.88.11,1.32,0,1-.71,2.3.3,3.07a3.3,3.3,0,0,0,1.88.39c1.37.09,2.73,0,4.1,0,.89,0,1.78-.08,2.68-.13a5.62,5.62,0,0,0,2.53-.32.37.37,0,0,0,.18-.21.36.36,0,0,0,0-.25,1.35,1.35,0,0,0-.78-.56c-1.37-.51-2.83-.68-4.18-1.22a5.25,5.25,0,0,1-2.66-2.13c-.42-.74-.46-1.56-1.27-2A2,2,0,0,0,83.54,102.72Z"/><path class="cls-6" d="M87.9,96.84c-2.29,1.57-5.69.27-5.69.27-2.93-5.79-3.16-16.31-3.16-16.31s-16.79-1.33-23.43-1.33a6.35,6.35,0,0,0-3.43.86c-3.26,2-4,7.11-9.79,11.89-7.33,6.11-21,7-21,7-2-1.57-1.87-5.22-1.87-5.22a23.2,23.2,0,0,1,5.94-5,20.91,20.91,0,0,1,2.31-1.24,38.49,38.49,0,0,0,7.84-4.62c2.57-9.31,8.57-19.14,8.57-19.14a27.38,27.38,0,0,0,15.24-.82C59,63,83.88,71.26,86.89,73.76S90.19,95.27,87.9,96.84Z"/><path class="cls-7" d="M79.05,80.8s-16.79-1.33-23.43-1.33a6.35,6.35,0,0,0-3.43.86c0-.19.74-4.16,7.37-4C66.35,76.58,79.05,80.8,79.05,80.8Z"/><path class="cls-7" d="M31.45,88.58a21.63,21.63,0,0,1-5.95.35,20.91,20.91,0,0,1,2.31-1.24,38.49,38.49,0,0,0,7.84-4.62S35.75,87.64,31.45,88.58Z"/><path class="cls-3" d="M61.32,51.68a13.08,13.08,0,0,1-.74,1.24,1.28,1.28,0,0,0-.15.31,3.78,3.78,0,0,0-.24.63c0,.11-.06.23-.1.35-.12.49-.25,1.07-.36,1.7L45,57.24v-.06a4.23,4.23,0,0,0-.05-.5c0-.29-.17-1.5-.21-1.82-.1-.77-.23-1.55-.34-2.33l0-.17c0-.31-.11-.61-.17-.92a22.56,22.56,0,0,0,1.6-8.69l.5,0,.32,0,.09,0,.58,0c.38,1.8,1.66,5.94,5.09,5.14,3.22-.75,3.37-3.86,3.23-5.43.4,0,.84.06,1.28.11,0,.45.65,1.19.9,1.51.37.5.79,1,1.19,1.43C60.45,47.08,62.36,49.25,61.32,51.68Z"/><path class="cls-8" d="M60.43,53.23a3.78,3.78,0,0,0-.24.63c0,.11-.06.23-.1.35-2.44,0-4.89.13-7.33.38-2,.2-4.08.49-6.11.85-.58.1-1.18.24-1.78.36,0-.31-.07-.62-.11-.94.76-.16,1.53-.28,2.27-.41,1.7-.31,3.39-.56,5.1-.75A74.08,74.08,0,0,1,60.43,53.23Z"/><path class="cls-9" d="M67.81,11.86a.21.21,0,0,0-.41-.06,38.41,38.41,0,0,0-.82,7.42c-.16,2.68-.26,5.35-.22,8a.13.13,0,1,0,.26,0c.21-2.57.38-5.14.6-7.71A61.9,61.9,0,0,0,67.81,11.86Z"/><path class="cls-9" d="M77.16,12.39c-2.61,1.84-4.19,5-5.13,7.93-.11.34.39.46.52.15,1.22-2.93,3.11-5.23,4.88-7.81C77.54,12.5,77.32,12.27,77.16,12.39Z"/><path class="cls-9" d="M85.87,15.59a59.26,59.26,0,0,0-6.65,4.34.24.24,0,0,0,.25.42,33.78,33.78,0,0,0,6.78-4.26C86.53,15.84,86.17,15.44,85.87,15.59Z"/></g></g></svg>