<svg xmlns="http://www.w3.org/2000/svg" viewBox="0 0 96.21 111.32"><defs><style>.cls-1{fill:#f6f6f6;}.cls-2{fill:#3b2645;}.cls-3{fill:#291b30;}.cls-4{fill:#f5a784;}.cls-5{fill:#c6c6c6;}.cls-6{fill:#ff5e1f;}.cls-7{fill:#e0855c;}.cls-8{fill:#d65e1f;}.cls-9{fill:#c1cae3;}</style></defs><title>Asset 2</title><g id="Layer_2" data-name="Layer 2"><g id="Layer_1-2" data-name="Layer 1"><path class="cls-1" d="M9,85.37a17.28,17.28,0,0,1,.36-18.3c1.57-2.34,3.75-4.34,4.63-7C15.64,54.94,12,49.79,10.23,44.7,7.51,37,9.09,28.22,13.34,21.27S24.28,9.1,31.58,5.48C43.09-.23,57-2.12,68.85,2.92S89.4,20.86,87.3,33.54c-.87,5.24-3.43,10.24-3.17,15.54.36,7.16,5.72,13,8,19.81A23.74,23.74,0,0,1,60.08,98c-3.26-1.4-6.32-3.55-9.86-3.87-3.8-.34-7.27,1.4-10.84,2.37-4.78,1.3-6.92.47-11.18-1.62C21.23,91.5,13.78,93.17,9,85.37Z"/><path class="cls-2" d="M63.41,71.21c-.4.93-.95,1.79-1.28,2.75-.21.62-.32,1.27-.59,1.87a3.74,3.74,0,0,1-1.08,1.35,3.79,3.79,0,0,1-1.58.75c-2,.39-4.19-.74-5.85.35l-.2.15c-.32.24-.59.54-.92.77-1.42,1-3.4.53-5-.22s-3.13-1.78-4.88-1.76a14.09,14.09,0,0,1-1.83.08,4.2,4.2,0,0,1-2.74-1.71c-2.89-3.5-2.5-9.36.14-12.89a5.64,5.64,0,0,0,1.19-2.06c.16-.75-.06-1.54.06-2.3a6.64,6.64,0,0,1,1.57-2.72,12,12,0,0,0,1.82-3.56,11.74,11.74,0,0,0,.32-1.3c.29-1.49.34-3.14,1.29-4.32,1.65-2,5.22-2.42,7.61-2,2.71.51,5.19,1.73,6.08,4.57A19.68,19.68,0,0,1,58,53.51a6.63,6.63,0,0,0,1.45,4.18A7.17,7.17,0,0,1,60.9,59.2c.5,1,.09,2.12,0,3.21a5,5,0,0,0,.92,3.24c.1.15.22.3.33.44a7.34,7.34,0,0,1,1.56,2.18A4.19,4.19,0,0,1,63.41,71.21Z"/><path class="cls-3" d="M62.18,66.09a.13.13,0,0,1,0,.06,9.08,9.08,0,0,1-1,2.26,11.49,11.49,0,0,0-1,7.38c.09.46.21.92.3,1.39a3.79,3.79,0,0,1-1.58.75c-2,.39-4.19-.74-5.85.35l-.2.15a11.4,11.4,0,0,1,.25-5c.06-.25.1-.56-.1-.71a.85.85,0,0,0-.45-.06A2.91,2.91,0,0,1,50,70.7a6.51,6.51,0,0,1-.19-3.37A25.68,25.68,0,0,0,50.25,64c0-1.71-.61-3.4-.44-5.1a5.69,5.69,0,0,1,2.49-4.11c.4-.27,2-1.14,2.43-.63.25.28-.3,1.93-.32,2.35a6.73,6.73,0,0,0,1.39,4.82,8.28,8.28,0,0,0,4.73,2.49,3,3,0,0,1,.52.12,4.94,4.94,0,0,0,.8,1.76C62,65.8,62.07,66,62.18,66.09Z"/><path class="cls-2" d="M69.52,92.83a86.83,86.83,0,0,1-16.6,4.35c-.66.32-4.82,4.79-7.42.55-.1-.17-.2-.35-.3-.55-1.2-.18-2.47-.41-3.79-.68a83,83,0,0,1-14.6-4.39c-4.81-2-8.14-4.31-7.55-6.38.49-1.74,4.42-2.34,9.39-2.34a166.06,166.06,0,0,1,20.41,1.73c3.69-.51,10.25-1.34,16.3-1.63,6.77-.32,12.88,0,13.51,2.24S75.27,90.65,69.52,92.83Z"/><path class="cls-4" d="M56.7,77a32.53,32.53,0,0,0,.62,7.22c-1.18.94-3.94,1.35-8.09,1.35a21,21,0,0,1-7.36-1.35,25.54,25.54,0,0,0-.43-10.08,4.09,4.09,0,0,0-.41-.93A10.52,10.52,0,0,1,40.26,72a5.3,5.3,0,0,1,.22-3.94c0-.12.07-.23.1-.34.36-1.21.4-2.38.67-3.6.19-.84,1-1.12,1.78-1.27l.86-.14.46-.08c.67-.11,1.35-.17,1.89-.22s.78-.07.95-.07l.13,0s0-.26,0-.26.16-.86.16-.86l.63-3.52c.13-1.32,1.78-1.62,3.09-1.66a11.51,11.51,0,0,1,1.63.08l-.27,6.28s0,0,.13.05.6,0,1.19.08l.65,0h.08l.32,0a14.74,14.74,0,0,1,1.92.23c.79.2,1.41.57,1.54,1.38.28,1.64-.3,3.38-.67,4.94a30,30,0,0,0-.57,3c0,.06,0,.12,0,.17-.19,1.39-.31,2.77-.43,4.18C56.73,76.68,56.7,76.84,56.7,77Z"/><path class="cls-4" d="M53.42,35.56l.06,0S53.45,35.57,53.42,35.56ZM67.74,45.63a22.92,22.92,0,0,0-4.3-4.46c-.82-.7-1.63-1.37-2.38-2-1.43-1.31-2.86-2.62-4.22-4C55.72,34,54,32.5,53.51,31a3.86,3.86,0,0,1-.16-1,11.64,11.64,0,0,0-.76-3.17,1,1,0,0,0-.35-.52.39.39,0,0,0-.54.1.51.51,0,0,0,0,.24c0,1.89-.55,4.71.28,6.45A25.53,25.53,0,0,0,54,36c1.15,1.69,2.12,3.42,3.35,5l5.1,6.86a32.38,32.38,0,0,1-3.91,7.94c-.23.34-.54.61-.79.92-2.66,3.31-4.27,4.7-5.05,5.63a1.93,1.93,0,0,0-.6,1.48c.52,6.56,5.06,8.27,5.06,8.27S70.49,49.79,67.74,45.63Z"/><path class="cls-4" d="M46.66,35.58s0,0,.06,0Zm-3.9,5.49C44,39.45,45,37.72,46.1,36a25.62,25.62,0,0,0,2.1-2.92c.83-1.74.28-4.56.27-6.45a.66.66,0,0,0,0-.24.4.4,0,0,0-.55-.1,1.15,1.15,0,0,0-.34.52A12.43,12.43,0,0,0,46.79,30a4.37,4.37,0,0,1-.15,1c-.52,1.53-2.22,3-3.34,4.15-1.35,1.39-2.79,2.7-4.22,4-.54.48-1.11,1-1.7,1.46a26,26,0,0,0-5,5c-1.95,2.93,4.32,15.15,8.17,22.08,1.61,2.89,2.8,4.86,2.8,4.86s3.93-2.09,4.62-8.52a.76.76,0,0,0,0-.15,2,2,0,0,0-.67-1.57c-.84-.95-2.42-2.36-5-5.54-.24-.31-.56-.58-.8-.92a32.82,32.82,0,0,1-3.91-7.94Z"/><path class="cls-5" d="M95.46,111c-1.09.12-2.18.21-3.29.26l-89.63,0H2.35l-1.43-.13a1,1,0,0,1,0-1.9l1.43-.13h.2s89.31,0,89.62,0c1.1,0,2.19.14,3.29.26A.78.78,0,0,1,95.46,111Z"/><path class="cls-6" d="M57.32,84.23c-1.18.94-3.94,1.35-8.09,1.35a21,21,0,0,1-7.36-1.35,25.54,25.54,0,0,0-.43-10.08,4.09,4.09,0,0,0-.41-.93A10.52,10.52,0,0,1,40.26,72a5.3,5.3,0,0,1,.22-3.94c0-.12.07-.23.1-.34-3.85-6.93-10.12-19.15-8.17-22.08a26,26,0,0,1,5-5l3.31,3.26c-1,1.35-2,2.72-3,4.07a31.72,31.72,0,0,0,3.9,7.95c.24.34.56.61.8.92,2.56,3.18,4.14,4.59,5,5.52.22.54.46,1.14.68,1.74A18,18,0,0,1,48.86,67l3.75-4.82v.22s0,0,.13.05c.78-.93,2.39-2.32,5.05-5.63.25-.31.56-.58.79-.92a32.38,32.38,0,0,0,3.91-7.94c-.93-1.25-1.85-2.5-2.79-3.75l3.75-3a22.92,22.92,0,0,1,4.3,4.46c2.75,4.16-10.55,26.54-10.55,26.54s0,.12,0,.17c-.19,1.39-.31,2.77-.43,4.18,0,.16,0,.32,0,.49A32.53,32.53,0,0,0,57.32,84.23Z"/><path class="cls-7" d="M52.87,56.09,52.74,59a6.86,6.86,0,0,1-5.08,1.4l.49-2.73c.13-1.32,1.78-1.62,3.09-1.66A11.51,11.51,0,0,1,52.87,56.09Z"/><path class="cls-4" d="M56,52.71c-.34-.79-.93-.66-1.42-.36a7.85,7.85,0,0,0-.28-3.26c-1-2.54-6.11-3.42-8.6-.26a7.74,7.74,0,0,0-.92,3.75c-.4,5,1.91,6.9,3.54,7A5.44,5.44,0,0,0,53.88,56C54.89,55.88,56.51,54,56,52.71Z"/><path class="cls-7" d="M49.17,54.76c-.22,0-.72.06-.81-.18a6,6,0,0,1,.38-1.53c.07-.22.13-.41.2-.6l-.06,0a.42.42,0,0,0-.14-.06c-.24.78-.42,1.61-.65,2.35a.11.11,0,0,0,.1.14c.32,0,.62.09.94.11C49.24,55,49.28,54.78,49.17,54.76Z"/><path class="cls-2" d="M47.6,50.72c-.3-.17-.87-.24-1.11.07a.1.1,0,0,0,.07.15c.16,0,.3-.07.45-.07a1.14,1.14,0,0,1,.48.09A.13.13,0,0,0,47.6,50.72Z"/><path class="cls-2" d="M51.82,51.4c-.16-.44-.92-.52-1.26-.27a.13.13,0,0,0,0,.21,2.78,2.78,0,0,0,.58,0,1.56,1.56,0,0,1,.47.17A.13.13,0,0,0,51.82,51.4Z"/><path class="cls-7" d="M49.63,56a2.09,2.09,0,0,1-.9.3c-.28,0-.57-.15-.83-.07a.07.07,0,0,0,0,.11c.18.3.71.36,1,.34a1.16,1.16,0,0,0,1-.44A.17.17,0,0,0,49.63,56Z"/><path class="cls-2" d="M47.7,52.44a1.53,1.53,0,0,1-1.05.1c-.24-.08-.39-.27-.62-.36,0,.31.3.5.55.59a1.53,1.53,0,0,0,1.22-.1C47.92,52.6,47.84,52.39,47.7,52.44Z"/><path class="cls-2" d="M52.08,52.8c-.49.14-1.31.48-1.58-.22a.1.1,0,0,0-.2,0c0,.4.43.6.75.66a1.18,1.18,0,0,0,1.12-.34C52.22,52.86,52.14,52.78,52.08,52.8Z"/><path class="cls-2" d="M54.63,46.57a6.08,6.08,0,0,0-1.81-1,7.92,7.92,0,0,0-3.43-.09,8.81,8.81,0,0,0-3.52.9c-.95.56-2.28,2.27-1.4,3.41s3-1,3.62-1.61a2.24,2.24,0,0,0,2.06,1.19,8.31,8.31,0,0,1,2.5.26,3.67,3.67,0,0,1,1.27,1.05,2.2,2.2,0,0,1,.64,1.67.89.89,0,0,1,.72-.3,1.23,1.23,0,0,0,.76-.21,1,1,0,0,0,.27-.51,6.85,6.85,0,0,0,0-2.12A3.37,3.37,0,0,0,54.63,46.57Z"/><path class="cls-3" d="M48.09,98.51l-21.28-6.4c-4.81-2-8.14-4.31-7.55-6.38.49-1.74,4.42-2.34,9.39-2.34C33.37,85.07,40,89.65,48.09,98.51Z"/><path class="cls-3" d="M69.52,92.83A54.77,54.77,0,0,1,61,91.46s4.94-3.5,4.33-8c6.77-.32,12.88,0,13.51,2.24S75.27,90.65,69.52,92.83Z"/><path class="cls-4" d="M70.77,97A36,36,0,0,1,63,99.62c-3.63.88-8.05,1.71-13.05,2.5-5.54.88-9.56,2.26-9.87-.27-.28-2.38,6.84-3.14,9-3.49a8.69,8.69,0,0,0,2.36-1.14c4.4-2.64,13.1-9.1,17.91-11.83,3.45-2,6.18-1.66,7.87-1.06a4.52,4.52,0,0,1,2.91,4C80.47,93.3,73.05,95.81,70.77,97Z"/><path class="cls-7" d="M63,99.62c-3.62.89-8.05,1.71-13.05,2.5-5.54.88-9.56,2.26-9.87-.27-.28-2.38,6.84-3.14,9-3.49a8.69,8.69,0,0,0,2.36-1.14C54,98.18,58.72,99.72,63,99.62Z"/><path class="cls-4" d="M17.85,88.28a4.47,4.47,0,0,1,2.91-3.94c1.69-.61,4.41-.9,7.86,1,6,3.4,18.08,12.64,20.28,13s9.32,1.1,9,3.48c-.31,2.53-4.33,1.15-9.86.27C38.43,100.59,30.94,99,27.21,97,24.93,95.81,17.5,93.29,17.85,88.28Z"/><path class="cls-6" d="M53.71,72.21c-.94,1.44-3.52.64-4.77.34a.14.14,0,0,0-.16.2c.5.94,1.92.91,2.84.86a3,3,0,0,0,2.65-1.07C54.51,72.19,53.94,71.86,53.71,72.21Z"/><path class="cls-8" d="M62.48,47.93c-.93-1.25-1.85-2.5-2.79-3.75l1.38-1.11A6.81,6.81,0,0,1,62.48,47.93Z"/><path class="cls-8" d="M40.69,43.85c-1,1.35-2,2.72-3,4.07.09-.22,1.31-3.26,2-5.11C40,43.22,40.42,43.58,40.69,43.85Z"/><path class="cls-9" d="M38.61,28.17a18.46,18.46,0,0,0-3.46.41,25.05,25.05,0,0,0-3.86.74.23.23,0,0,0,.06.45,20.18,20.18,0,0,0,3.45-.35,21.1,21.1,0,0,0,3.89-.67A.3.3,0,0,0,38.61,28.17Z"/><path class="cls-9" d="M41.52,21.32a23.76,23.76,0,0,1-4.31-2.58,7.83,7.83,0,0,0-3.84-1.87.26.26,0,0,0-.13.48A20.65,20.65,0,0,1,37.49,20a8,8,0,0,0,3.84,2A.37.37,0,0,0,41.52,21.32Z"/><path class="cls-9" d="M49.6,12c-.15-1.92-.15-3.86-.34-5.78a.28.28,0,0,0-.55,0,37.66,37.66,0,0,0,.09,6.1,31.08,31.08,0,0,0,.68,5.53.36.36,0,0,0,.7-.09C50.12,15.79,49.75,13.87,49.6,12Z"/><path class="cls-9" d="M61.08,14.22a46.86,46.86,0,0,0-5.72,5.09c-.26.27.09.78.42.54a48.17,48.17,0,0,0,5.82-5C61.94,14.56,61.48,13.91,61.08,14.22Z"/><path class="cls-9" d="M71.35,28.06a20.08,20.08,0,0,0-5.2-.48,16.51,16.51,0,0,0-5.16.19.17.17,0,0,0,0,.33,22.77,22.77,0,0,0,5.16.41,28.32,28.32,0,0,0,5.2.2C71.7,28.66,71.63,28.15,71.35,28.06Z"/></g></g></svg>