<svg xmlns="http://www.w3.org/2000/svg" viewBox="0 0 276.97 186.44"><defs><style>.cls-1{fill:#899d9d;}.cls-10,.cls-11,.cls-15,.cls-16,.cls-19,.cls-2,.cls-21,.cls-23,.cls-3,.cls-8{fill:none;}.cls-2,.cls-3{stroke:#6c8585;}.cls-10,.cls-11,.cls-15,.cls-16,.cls-2,.cls-21,.cls-8{stroke-linecap:round;stroke-linejoin:round;}.cls-2{stroke-width:0.31px;}.cls-18,.cls-19,.cls-23,.cls-3{stroke-miterlimit:10;}.cls-3{stroke-width:0.76px;}.cls-4{fill:#6c8585;}.cls-5{fill:#5f7575;}.cls-18,.cls-6{fill:#fff;}.cls-7{fill:#f8eced;}.cls-11,.cls-8{stroke:#ffaa9d;}.cls-8{stroke-width:8.6px;}.cls-9{fill:#363039;}.cls-10{stroke:#f8eced;stroke-width:0.73px;}.cls-11{stroke-width:6.83px;}.cls-12{fill:#ffaa9d;}.cls-13{fill:#ffeee6;}.cls-14{fill:#ffa277;}.cls-15,.cls-16,.cls-19,.cls-21{stroke:#363039;}.cls-15{stroke-width:0.41px;}.cls-16{stroke-width:0.93px;}.cls-17{fill:#6f5e68;}.cls-18{stroke:#848186;stroke-width:0.25px;}.cls-19{stroke-width:0.97px;}.cls-20{fill:#85767f;}.cls-21{stroke-width:0.25px;}.cls-22{fill:#f5debf;}.cls-23{stroke:#fff;stroke-width:0.45px;}.cls-24{fill:#dd6a5b;}.cls-25{fill:#7b95ba;}.cls-26{fill:#d9b487;}</style></defs><g id="Layer_2" data-name="Layer 2"><g id="OBJECTS"><path class="cls-1" d="M239.59,185.3a69.25,69.25,0,0,0-6-8.4c-2.88-3.23-5.51-8.21-2.76-9.77s8.76,6.6,8.76,16.12Z"/><path class="cls-2" d="M231.26,168.37s4.17,1.55,8.33,16.17"/><path class="cls-1" d="M239.59,184.54a39.46,39.46,0,0,1,3.37-4.71c1.61-1.81,3.09-4.6,1.54-5.48s-4.91,3.71-4.91,9Z"/><path class="cls-2" d="M244.18,175.36a20.59,20.59,0,0,0-4.68,8.86"/><path class="cls-1" d="M32.5,185.7s-13.88-43.16-19.44-50.17c-5.9-7.44-19.6-40.22-5.73-40C21.8,95.79,44.15,186,44.15,186Z"/><path class="cls-3" d="M4.1,96.32c10.82,14,24.19,48,37.84,84.23"/><path class="cls-1" d="M67.83,185.91s5.35-36.54,9.91-42.73c4.84-6.57,14.86-34.78,2.12-33.75-13.28,1.07-25.71,76.11-25.71,76.11Z"/><path class="cls-3" d="M82.38,109.68c-10,19.13-16.73,45.63-22.18,74.82"/><path class="cls-4" d="M31.3,185.91l32-.61S86.55,162,75.8,156.16s-15.33,4.19-15.33,4.19,10.9-36.45,1.41-41.93S46.06,130,46.06,130,51,73.26,31.3,77.77s-4.83,67-4.83,67S7.06,127.13.73,143.26,31.3,185.91,31.3,185.91Z"/><path class="cls-5" d="M32.55,85.84q2,19.29,4,38.58t4.14,38.36q1.2,10.88,2.43,21.73c0,.48.82.48.76,0Q41.7,165.24,39.61,146t-4.07-38.37q-1.12-10.87-2.23-21.74c-.05-.49-.81-.49-.76,0Z"/><path class="cls-5" d="M42.31,170.84q1.42-4.32,2.82-8.64T48,153.5q1.42-4.4,2.83-8.78L53.57,136c.92-2.89,1.83-5.78,2.75-8.68l.33-1c.15-.47-.59-.67-.73-.21-.92,2.89-1.83,5.78-2.75,8.66l-2.78,8.72q-1.41,4.38-2.83,8.78c-.94,2.9-1.87,5.8-2.82,8.71l-2.82,8.65c-.11.35-.23.7-.34,1s.58.67.73.21Z"/><path class="cls-5" d="M43.4,183.48h0a.4.4,0,0,0-.14.52.39.39,0,0,0,.53.14c.65-.4,1.29-.83,1.94-1.25q2.36-1.52,4.68-3.07c2-1.3,3.89-2.63,5.8-4s3.57-2.57,5.28-4c2.37-1.93,4.58-4.07,7.12-5.79l1-.65c.41-.26,0-.92-.39-.66a65.68,65.68,0,0,0-7.72,6.1l-1.08.88-.61.47-.08.07c-.09.07,0,0,0,0l-.16.12-.32.24c-.9.68-1.81,1.35-2.72,2-1.92,1.37-3.87,2.71-5.83,4q-2.43,1.64-4.9,3.23l-1.59,1c-.26.16-.52.31-.77.49l0,0,.39.66h0a.38.38,0,0,0,.14-.52.39.39,0,0,0-.52-.14Z"/><path class="cls-5" d="M9.84,147.31c2,1.9,4,3.79,6,5.67s4.1,3.76,6.17,5.62,4.19,3.73,6.31,5.58,4.22,3.65,6.35,5.46,4.25,3.57,6.4,5.34l.79.64a.38.38,0,1,0,.54-.54c-2.15-1.76-4.28-3.53-6.41-5.32s-4.25-3.61-6.35-5.44-4.23-3.7-6.32-5.57-4.14-3.73-6.19-5.62-4.06-3.76-6.06-5.67l-.73-.69c-.36-.34-.9.2-.54.54Z"/><path class="cls-6" d="M61.66,69.19l9.07,62.24h43.15L104,72.73a4.27,4.27,0,0,0-4.22-3.57Z"/><path class="cls-7" d="M70.85,136.44H132a3.36,3.36,0,0,0,3.36-3.36h0a3.36,3.36,0,0,0-3.36-3.35H76.67a3.37,3.37,0,0,1-3.32-2.88L65.46,72a3.35,3.35,0,0,0-3.8-2.85h0A3.37,3.37,0,0,0,58.82,73l8.71,60.57A3.36,3.36,0,0,0,70.85,136.44Z"/><path class="cls-8" d="M111.37,119.88c32.38,11.74,39.7,26.29,39.72,58.75"/><path class="cls-9" d="M154,179.67l-7.26-1a1,1,0,0,0-1.11.61,14.48,14.48,0,0,0-1.09,5.87,1.09,1.09,0,0,0,1.15,1s16.81,1.15,18.88-1.07S154,179.67,154,179.67Z"/><line class="cls-10" x1="158.1" y1="181.51" x2="156.97" y2="182.66"/><line class="cls-10" x1="156.77" y1="180.89" x2="155.65" y2="182.04"/><path class="cls-7" d="M160.06,181.53c2.9,1.07,5.54,2.42,4.5,3.54-.62.67-2.56,1-5,1.21A4.88,4.88,0,0,1,160.06,181.53Z"/><path class="cls-8" d="M94.51,119.88c44.48,22.81,11.57,41.62,5.36,60"/><path class="cls-9" d="M103.15,179.59,95.9,178.5a1,1,0,0,0-1.12.6A14.33,14.33,0,0,0,93.64,185a1.08,1.08,0,0,0,1.13,1s16.8,1.29,18.89-.9S103.15,179.59,103.15,179.59Z"/><path class="cls-7" d="M109.22,181.47c2.89,1.11,5.5,2.5,4.44,3.61-.63.65-2.58,1-5,1.13A4.86,4.86,0,0,1,109.22,181.47Z"/><line class="cls-10" x1="107.26" y1="181.42" x2="106.12" y2="182.55"/><line class="cls-10" x1="105.95" y1="180.78" x2="104.81" y2="181.91"/><path class="cls-11" d="M116,69.48c8.41,3-13.11,29.26,24.68,28.16"/><path class="cls-12" d="M102.46,65.24h0a4.32,4.32,0,0,1-4.31-4.31V51.61a4.32,4.32,0,0,1,4.31-4.3h0a4.32,4.32,0,0,1,4.31,4.3v9.32A4.32,4.32,0,0,1,102.46,65.24Z"/><path class="cls-9" d="M98.15,49.32h8.62v9.32s-2.73.93-8.62-3.23Z"/><path class="cls-12" d="M121.63,76.14C122.36,65.38,114.55,61,103.37,61h-1.81C90.38,61,82,65.79,82.74,76.54,83.18,83,87.11,85.28,89.62,95c1.61,6.23-1.9,14.24-2,18.23-.21,6.1,2.85,12.93,14,12.93h1.81c11.18,0,14.24-6.83,14-12.93-.14-4-3.64-12-2-18.23C117.91,85.28,121.19,82.54,121.63,76.14Z"/><path class="cls-13" d="M156.85,176.52c-.71-9.51-1.43-19.12-4.43-28.26s-8.51-17.87-17.07-23.29c-5.7-3.62-12.85-5.91-16.44-11.35a25.16,25.16,0,0,1-2.43-5.37,1.48,1.48,0,0,0-.68-1,1.75,1.75,0,0,0-.88-.06l-23.78,2.49.13-.06c-.94.56-2.34,0-3.23.65-.27.18-.69-.08-.46,3.2s-.22,5.85,1.61,9.08c.71,1.25,2.45,1.78,3.21,2.08,1.09.43,3.17,1.33,5.59,2.53a18.94,18.94,0,0,1,4.75,3.78l4.79,4.76a13.15,13.15,0,0,1,2.46,3c.61,1.14.41,3.29.55,4.56.4,3.56-1.09,6.63-2.49,10a32.74,32.74,0,0,1-6.45,10.46c-3,3.28-5.89,6.94-6.52,11.17l12.06,4.5,1.57-1.84c2.48-3.65,4.31-6.89,6.79-10.55a36.27,36.27,0,0,0,2.56-4.38c.53-1.18,1.59-2.35,2-3.59.46-1.62,1.35-2.7,1.73-4.33,1-4.27,2.76-7,2.39-11.4-.26-3.1-.35-6.74-.89-8.86-.12-.47-.91-2.57-.55-2.83s1.84,1.32,2.31,1.55c5.66,2.78,9.1,6.77,12.42,12.46,5,8.61,5.57,18.78,5.74,28.55l-.22.38c4.78,1.52,13.91,2.69,13.91,2"/><path class="cls-7" d="M108,111.69c0,2.21,0,4,0,6.2a67.78,67.78,0,0,1-8.64-.86c-1-.17-2-.35-3-.62-2.86-.78-5.59-2.26-8.56-2.37L100.11,112a46,46,0,0,1,7.94-.77"/><path class="cls-7" d="M116.5,109.71a25.31,25.31,0,0,1-3.78,7.11c-1.56-1.78-3.32-3.82-4.88-5.6,3.32-1.49,5.56-1,8.47-1.52"/><path class="cls-14" d="M97.09,61c-7.94.51-14,5.17-15.7,12.94-.59,2.68,0,6.9.15,9.63a118.76,118.76,0,0,0,6.22,30.23l0,.18c6.45.31,12.85-1,19.17-2.27l9.66-2h-.06a54.07,54.07,0,0,0,.91-8.72V97.84c1-.32,5.92,1.76,9.41,2.45a42.72,42.72,0,0,0,4.41,1c2.18.22,5.1.68,7.15-.1.33-1.77.36-5.33.69-7.09h-.13c-3.94-.55-7.94-1.29-11.42-3.2s-3.79-3.37-4.39-7.3c-.43-2.82-1.29-8-1.45-10.87-.37-6.5-7.45-11.62-14-11.49l-.93.11A7.16,7.16,0,0,1,98.49,61"/><path class="cls-7" d="M98.24,61.27a17.51,17.51,0,0,0,3.15,5.78,31.65,31.65,0,0,1,2.71-4.77L98,60.76"/><path class="cls-7" d="M104.28,62.46c1.54.82,2.92,1.36,4.41,2.26a8,8,0,0,0-1.57-4.53,13.66,13.66,0,0,1-2.84,2.16"/><path class="cls-11" d="M87.83,69.48S57.31,105.69,118.7,97.67"/><path class="cls-14" d="M89.29,63.92a21.62,21.62,0,0,0-9.94,8.73,27.41,27.41,0,0,0-3.8,12.76,18.52,18.52,0,0,0,1.23,8.42c1.14,2.63,7,8.12,9.75,9,1.59.51,30.39.56,30.39-1.12,0-.53-1.25-5.1-.78-7.38.29-1.4-20.54-2.2-20.2-3.59A30.41,30.41,0,0,0,89.47,64"/><path class="cls-12" d="M116.91,47.55a3.21,3.21,0,1,1-3.44-3A3.26,3.26,0,0,1,116.91,47.55Z"/><path class="cls-12" d="M95.6,46.05a3.21,3.21,0,1,1-3.44-3A3.23,3.23,0,0,1,95.6,46.05Z"/><path class="cls-12" d="M103.86,55.37l-3-.28c-5.41-.49-9.42-5.84-8.93-11.4l1-11.76a10,10,0,0,1,10.72-9.21l3,.27a10.11,10.11,0,0,1,9,11l-1,11.76C114.13,51.32,109.27,55.86,103.86,55.37Z"/><path class="cls-9" d="M91,45.46a4.24,4.24,0,0,1,1.27,2.83c0,.19.31.25.36,0A2.44,2.44,0,0,0,91,45.41a0,0,0,0,0,0,.05Z"/><path class="cls-9" d="M109.17,41.38a1,1,0,0,0,.84,1.14,1,1,0,0,0,1.07-.92,1,1,0,0,0-.84-1.15A1,1,0,0,0,109.17,41.38Z"/><path class="cls-9" d="M99.88,40.83a1,1,0,0,0,.84,1.14,1,1,0,0,0,1.07-.92A1,1,0,0,0,101,39.9,1,1,0,0,0,99.88,40.83Z"/><path class="cls-15" d="M102.92,45.73c.52,1.33,1,1.29,1.54,1.42s1.24-.16,1.81-1.32"/><path class="cls-16" d="M99.45,36.88a4.64,4.64,0,0,1,1.38-.12,5.46,5.46,0,0,1,1.39.3"/><path class="cls-16" d="M109.16,37.87a4,4,0,0,1,1.38,0,5.08,5.08,0,0,1,1.38.42"/><path class="cls-15" d="M106.67,38.82c.57,3.44.18,5.26-1.06,5"/><path class="cls-9" d="M115.33,37.41a2.15,2.15,0,0,0,.59-1.82l0-3a2.92,2.92,0,0,0,2.42-.77,2,2,0,0,0,0-2,5.92,5.92,0,0,0-1.44-1.6v-.11c1,.82,2.69-.14,2.86-1.43a3.29,3.29,0,0,0-1.94-3.09,12.27,12.27,0,0,0-3.76-.92c-4.91-.77-9.89-2.74-14.69-1.46A13.29,13.29,0,0,0,91.28,28a19.39,19.39,0,0,0-1.81,10.62A8.7,8.7,0,0,0,91,43.26l1-.18.12,0,1.41.44a.53.53,0,0,0,.82-.57A32.85,32.85,0,0,1,94.84,36a10.86,10.86,0,0,1,3.27-6c2.28-1.95,5.47-2.48,8.46-2.35a9.38,9.38,0,0,1,5.86,1.88c2.1,1.85,2.57,4.89,2.9,7.67"/><path class="cls-17" d="M103.86,26.26a7.64,7.64,0,0,1,5.86-1.21,13.29,13.29,0,0,1,3.14,1,10.91,10.91,0,0,0,3,1,2.51,2.51,0,0,0,1.61-.3,1.61,1.61,0,0,0,.79-1.11c0-.17-.22-.24-.25-.07a1.45,1.45,0,0,1-.75,1,2.39,2.39,0,0,1-1.49.2,12.81,12.81,0,0,1-3-1,10.88,10.88,0,0,0-6.05-.92,6.93,6.93,0,0,0-3,1.26c-.14.1,0,.33.13.23Z"/><path class="cls-17" d="M112.12,27.65c1.91.65,3.24,2.92,5.45,2.68.17,0,.17-.28,0-.26A4.22,4.22,0,0,1,114.72,29a9.61,9.61,0,0,0-2.53-1.61c-.16-.05-.23.2-.07.26Z"/><path class="cls-17" d="M93.41,42.1A11.84,11.84,0,0,1,92,34.44c0-.16-.23-.24-.26-.07a12.06,12.06,0,0,0,.71,6.26,14,14,0,0,0,.77,1.61.13.13,0,0,0,.23-.14Z"/><path class="cls-17" d="M92,41.71a9.61,9.61,0,0,1-1.12-4.29c0-.17-.27-.17-.26,0a9.88,9.88,0,0,0,1.15,4.42c.08.15.31,0,.23-.13Z"/><path class="cls-9" d="M90.18,77.89c-.65,2.86-1.19,5.91-.26,8.77a7.77,7.77,0,0,0,2,3.22,8.67,8.67,0,0,0,3.5,1.9,28.3,28.3,0,0,0,4.36.88,46.09,46.09,0,0,0,4.69.39c1.56.06,3.13,0,4.69,0a19.07,19.07,0,0,1,3.78.25,11.25,11.25,0,0,1,2.27.63,6.54,6.54,0,0,1,.6.28l.18.11.06.05,0,0s0,0,0,0,0,0,0,0-.21,0,0-.15a.18.18,0,0,1,.09,0c-.16,0-.23.23-.07.26s.23-.16.12-.26a1.3,1.3,0,0,0-.31-.21,7.36,7.36,0,0,0-1.57-.63,15.1,15.1,0,0,0-3-.52c-1.49-.12-3,0-4.46,0A45.89,45.89,0,0,1,97.31,92a13,13,0,0,1-4-1.35,6.85,6.85,0,0,1-2.68-2.86c-1.35-2.69-1.06-5.8-.47-8.65.08-.39.16-.77.25-1.16,0-.16-.22-.24-.26-.07Z"/><path class="cls-9" d="M115.59,75.28c.44,2.45.77,4.91,1,7.39s.39,5,.44,7.49c0,1.39,0,2.77,0,4.16,0,.17.26.17.26,0,.07-2.5,0-5-.11-7.49s-.37-5-.7-7.5c-.18-1.38-.39-2.75-.63-4.12,0-.17-.29-.09-.26.07Z"/><path class="cls-9" d="M89.36,111.33a3.5,3.5,0,0,0,1.19,2.26c.13.11.32-.08.19-.19a3.18,3.18,0,0,1-1.11-2.07c0-.17-.29-.17-.27,0Z"/><path class="cls-9" d="M93.63,111.07a5.66,5.66,0,0,0,1,2.27c.1.14.33,0,.23-.13a5.72,5.72,0,0,1-.94-2.21c0-.17-.28-.1-.25.07Z"/><path class="cls-9" d="M97.87,110.67l.63,2a.13.13,0,0,0,.26-.07l-.64-2c-.05-.17-.31-.1-.25.07Z"/><path class="cls-9" d="M102.07,109.83a4.11,4.11,0,0,1,.71,1.82.14.14,0,0,0,.17.09.14.14,0,0,0,.09-.16,4.49,4.49,0,0,0-.74-1.89c-.09-.14-.32,0-.23.14Z"/><path class="cls-9" d="M107.16,108.35a27.64,27.64,0,0,1,1,2.67c0,.16.31.09.26-.07a29,29,0,0,0-1-2.73c-.07-.16-.3,0-.23.13Z"/><path class="cls-9" d="M111.67,107.86a6.3,6.3,0,0,1,.4,2.43.14.14,0,0,0,.27,0,6.67,6.67,0,0,0-.41-2.5c-.06-.16-.32-.09-.26.07Z"/><path class="cls-9" d="M115.32,107.91a6.05,6.05,0,0,1,.07,1.75.13.13,0,1,0,.26,0,6.17,6.17,0,0,0-.07-1.82c0-.17-.29-.09-.26.07Z"/><path class="cls-9" d="M86.54,109.6c.93,1.33,2.88,1.1,4.28,1,2.06-.08,4.12-.25,6.16-.5,1.15-.14,2.3-.31,3.45-.5.17,0,.1-.28-.07-.25-2,.32-4,.58-6,.75q-1.47.14-2.94.21a22.56,22.56,0,0,1-2.6.05,2.68,2.68,0,0,1-2.1-.93c-.1-.14-.33,0-.23.13Z"/><path class="cls-9" d="M114.43,107.23a9.37,9.37,0,0,0,2.15-.77c.15-.08,0-.31-.14-.23a8.6,8.6,0,0,1-2.08.74c-.17,0-.1.29.07.26Z"/><path class="cls-9" d="M113.37,95a7.35,7.35,0,0,1,2,.45c.16.06.23-.2.07-.26a8,8,0,0,0-2-.46c-.17,0-.17.25,0,.27Z"/><path class="cls-9" d="M113.19,97.18a13.13,13.13,0,0,1,2.26.06c.17,0,.17-.25,0-.27a13.13,13.13,0,0,0-2.26,0c-.17,0-.18.27,0,.26Z"/><path class="cls-9" d="M114,99.63l1.89-.48a.13.13,0,0,0-.07-.26l-1.89.49a.13.13,0,1,0,.07.25Z"/><path class="cls-9" d="M112.33,122.78l2.6-1.71c.14-.09,0-.32-.14-.22l-2.6,1.7c-.14.09,0,.33.14.23Z"/><path class="cls-9" d="M112.5,122.83a14.86,14.86,0,0,1,4.81,4,27.85,27.85,0,0,1,3.53,6c.57,1.25,1.09,2.52,1.61,3.79.06.16.32.09.26-.07a58.56,58.56,0,0,0-3.07-6.69,20.17,20.17,0,0,0-4-5.22,13.83,13.83,0,0,0-3-2.05c-.15-.08-.29.15-.13.23Z"/><path class="cls-9" d="M94.59,114a10.92,10.92,0,0,0,2.56,5.86,22.17,22.17,0,0,0,5.75,4.22,61.22,61.22,0,0,1,6.46,4.51,18.14,18.14,0,0,1,4.8,5.23,17.23,17.23,0,0,1,1.64,7.49,35.28,35.28,0,0,1-.51,7.68,48.35,48.35,0,0,1-4.87,13.84,86.63,86.63,0,0,1-7.65,12.2c-.34.46-.69.91-1,1.36-.1.13.08.31.18.18a85.1,85.1,0,0,0,7.84-11.95,52.82,52.82,0,0,0,5.38-13.52,37.78,37.78,0,0,0,1-7.56,25.48,25.48,0,0,0-.79-7.58,13,13,0,0,0-3.8-5.87,48,48,0,0,0-5.93-4.61c-1.08-.73-2.18-1.41-3.3-2.08a30.72,30.72,0,0,1-3.12-2,11.15,11.15,0,0,1-4-5.73,9.38,9.38,0,0,1-.33-1.66c0-.16-.27-.16-.25,0Z"/><path class="cls-9" d="M117.34,122.49a38.67,38.67,0,0,1,11.48,4.61,42.61,42.61,0,0,1,9.42,7.71,43.81,43.81,0,0,1,7.11,10.56,51.6,51.6,0,0,1,4.22,13,70.13,70.13,0,0,1,1.05,14.1c0,.66,0,1.32,0,2,0,.16.25.16.26,0,0-2.56.1-5.12,0-7.68a65.11,65.11,0,0,0-.7-6.82,54.38,54.38,0,0,0-3.83-13.23,44.9,44.9,0,0,0-6.91-11.07,43,43,0,0,0-9.15-8,39.63,39.63,0,0,0-11.28-5.06l-1.53-.37c-.16,0-.23.21-.07.25Z"/><path class="cls-9" d="M80.54,80.83,80.23,83a.14.14,0,0,0,.09.17.14.14,0,0,0,.17-.09l.3-2.15a.14.14,0,0,0-.09-.17.14.14,0,0,0-.16.1Z"/><path class="cls-9" d="M82.28,80.19V81.8a.13.13,0,1,0,.26,0V80.19a.13.13,0,0,0-.26,0Z"/><path class="cls-9" d="M81.73,86.25a4.21,4.21,0,0,1-.09,1.58.13.13,0,0,0,.26.07A4.37,4.37,0,0,0,82,86.25a.13.13,0,0,0-.13-.14.13.13,0,0,0-.13.14Z"/><path class="cls-9" d="M109.88,79.58a1.42,1.42,0,0,1,.25,1.11.13.13,0,0,0,.09.16.14.14,0,0,0,.17-.09,1.69,1.69,0,0,0-.28-1.31.13.13,0,1,0-.23.13Z"/><path class="cls-9" d="M103.93,77.4c.08.32.17.63.25.95a.14.14,0,0,0,.26-.07l-.26-1a.13.13,0,0,0-.25.07Z"/><path class="cls-9" d="M106.79,86.41a10.14,10.14,0,0,1,.1,2.52c0,.18.26.17.27,0a10.72,10.72,0,0,0-.11-2.59c0-.17-.29-.1-.26.07Z"/><path class="cls-12" d="M146.55,93.23c-.92-1.06-2.29-2.28-3.85-1.93a4.91,4.91,0,0,0-1.7.91,5.25,5.25,0,0,0-1.74,1.46,1.37,1.37,0,0,0,.8,2c1.24.35,2-.47,2.85-1.23,1-.9,2-.81,3.25-.52a.41.41,0,0,0,.39-.67Z"/><path class="cls-12" d="M145.26,94.16a10.69,10.69,0,0,0-3.63-1c-1.59-.15-1.62,2.6,0,2.49,1.07-.07,2.16-.09,3.24-.08.73,0,1.11-1.11.39-1.44Z"/><path class="cls-12" d="M136.83,92.18c-.29,1,.45,1.58,1.07,2.22s1.34,1.47,2.34,1.46a1.16,1.16,0,0,0,1.11-1.46c-.28-1-1.34-1.46-2.12-2.07-.41-.32-.82-.78-1.38-.78a1,1,0,0,0-1,.63Z"/><path class="cls-12" d="M125.18,96c-1.07-.66-2.59-.68-3.82-.89s-2.62-.76-3.72,0a1.17,1.17,0,0,0-.23,1.8c1.08,1,2.5.65,3.87.6a10.37,10.37,0,0,0,3.9-.41.65.65,0,0,0,0-1.12Z"/><path class="cls-12" d="M124.23,94.06c0-1.31-1.43-1.46-2.47-1.3a8.68,8.68,0,0,0-4.26,2.34c-1.57,1.44,1.21,3.73,2.35,1.81.87-1.46,2.17-2.84,4-2.56a.29.29,0,0,0,.37-.29Z"/><path class="cls-12" d="M117.46,91.79c-.36.38-.73.75-1.1,1.13a2,2,0,0,0-.62.94,1.08,1.08,0,0,0,1.59,1.22,1.68,1.68,0,0,0,.69-.8c.26-.48.51-1,.77-1.46a.85.85,0,0,0-1.33-1Z"/><rect class="cls-18" x="25.29" y="97.64" width="251.55" height="5.84"/><line class="cls-19" x1="55.56" y1="103.48" x2="55.56" y2="186.21"/><line class="cls-19" x1="75.28" y1="103.48" x2="75.28" y2="186.21"/><line class="cls-19" x1="219.25" y1="103.48" x2="219.25" y2="186.21"/><line class="cls-19" x1="240.3" y1="103.48" x2="240.3" y2="186.44"/><rect class="cls-17" x="125.95" y="95.08" width="45.61" height="2.27" rx="1.05" transform="translate(297.52 192.43) rotate(180)"/><path class="cls-20" d="M158.23,85.29l.31.24a3.13,3.13,0,0,0,2,.64l60-2L227,48.4a3.33,3.33,0,0,0-1.25-3.23l-.27-.21a2.64,2.64,0,0,0-1.6-.54H163.21a2.41,2.41,0,0,0-2.39,2.15L157,82.47A3.13,3.13,0,0,0,158.23,85.29Z"/><path class="cls-17" d="M162.36,86.2h58.42a2.65,2.65,0,0,0,2.63-2.36l3.65-34.51a2.65,2.65,0,0,0-2.63-2.92H166a2.64,2.64,0,0,0-2.63,2.36l-3.65,34.51A2.65,2.65,0,0,0,162.36,86.2Z"/><polygon class="cls-20" points="187.3 95.67 201.38 95.67 198.93 71.75 187.3 71.75 187.3 95.67"/><polygon class="cls-17" points="189.75 95.67 202.93 95.67 200.47 71.75 187.3 71.75 189.75 95.67"/><rect class="cls-17" x="179.84" y="95.08" width="30.55" height="2.27" rx="0.86" transform="translate(390.22 192.43) rotate(180)"/><path class="cls-7" d="M192.15,61.16a3,3,0,1,0,3-3A3,3,0,0,0,192.15,61.16Z"/><polyline class="cls-21" points="187.3 71.75 200.47 71.75 201.95 86.17"/><rect class="cls-6" x="57.83" y="2.08" width="28.81" height="21.45" rx="6.16" transform="translate(144.47 25.61) rotate(-180)"/><path class="cls-6" d="M81.88,30.39c-5.19-2-8.18-4.55-9.64-7.5h7.49c-.88,2.13.21,4.43,2.65,6.86C82.69,30.07,82.31,30.56,81.88,30.39Z"/><rect class="cls-22" x="65.01" y="7.91" width="14.45" height="9.79" rx="0.86"/><path class="cls-23" d="M65,7.91s6.1,4.89,7.23,4.89,7.22-4.89,7.22-4.89"/><path class="cls-6" d="M195.78,38a1.47,1.47,0,1,1-1.47-1.46A1.46,1.46,0,0,1,195.78,38Z"/><circle class="cls-6" cx="199.08" cy="23.74" r="1.46"/><circle class="cls-6" cx="200.34" cy="30.16" r="2.73"/><path class="cls-6" d="M195.74,26.58a5.15,5.15,0,1,1-5.15-5.15A5.15,5.15,0,0,1,195.74,26.58Z"/><path class="cls-6" d="M204,10.73a5.15,5.15,0,1,1-5.15-5.15A5.14,5.14,0,0,1,204,10.73Z"/><path class="cls-6" d="M190.11,13.58a3.7,3.7,0,1,1-3.69-3.69A3.7,3.7,0,0,1,190.11,13.58Z"/><path class="cls-6" d="M193.05,19.39a1.46,1.46,0,1,1,2,.53A1.46,1.46,0,0,1,193.05,19.39Z"/><circle class="cls-6" cx="191.01" cy="1.46" r="1.46"/><path class="cls-24" d="M190.59,29.67s-2.39-1.54-3-3.11a1.56,1.56,0,0,1,.83-2.25c1.59-.48,2.13,1.46,2.13,1.46s.69-2.18,2.39-1.36c1,.47,1,1.31.61,2.15A7.8,7.8,0,0,1,190.59,29.67Z"/><rect class="cls-25" x="200.71" y="9.94" width="1.34" height="3.49" rx="0.19"/><path class="cls-25" d="M200,9.89v3.68a6.5,6.5,0,0,1-2.23.14A2.26,2.26,0,0,1,195.8,12c-.21-1.43,0-2,.56-2S200,9.89,200,9.89Z"/><path class="cls-25" d="M198.62,7.79c-.63-.37-.74.5-.6,1.24a3.58,3.58,0,0,0,.46,1.16l1.49-.3C198.83,8.82,199,8,198.62,7.79Z"/><path class="cls-26" d="M186.5,11.21a2,2,0,0,1,2.22,2,1.42,1.42,0,0,1-1.37,1.57.66.66,0,0,1-.72-.42h0a.81.81,0,0,1-.73.36c-.45,0-.81-.32-.81-.95,0-.89.5-1.49,1.18-1.49a.62.62,0,0,1,.58.31h0a.4.4,0,0,1,.37-.28.37.37,0,0,1,.38.45L187.38,14c0,.23,0,.37.25.37s.66-.47.66-1.07a1.65,1.65,0,0,0-1.83-1.71,2,2,0,0,0-2,2.08,1.79,1.79,0,0,0,1.88,1.93,2.33,2.33,0,0,0,1.29-.33.26.26,0,0,1,.13-.05.17.17,0,0,1,.17.16.16.16,0,0,1-.08.14,2.52,2.52,0,0,1-1.56.43A2.16,2.16,0,0,1,184,13.68,2.39,2.39,0,0,1,186.5,11.21Zm-.31,3c.35,0,.54-.48.54-.93,0-.23-.09-.41-.32-.41s-.54.42-.54.93C185.87,14.09,186,14.21,186.19,14.21Z"/></g></g></svg>